Coordinates
version=1
nRows=14
nColumns=24
inDegrees=yes

Units are S.I. units (second, meters, Newtons, ...)
Angles are in degrees.

endheader
time	pelvis_tilt	pelvis_list	pelvis_rotation	pelvis_tx	pelvis_ty	pelvis_tz	hip_flexion_r	hip_adduction_r	hip_rotation_r	knee_angle_r	ankle_angle_r	subtalar_angle_r	mtp_angle_r	hip_flexion_l	hip_adduction_l	hip_rotation_l	knee_angle_l	ankle_angle_l	subtalar_angle_l	mtp_angle_l	lumbar_extension	lumbar_bending	lumbar_rotation
      0.78766667	      2.10001619	     -4.16952569	      1.58916562	     -0.34835668	      1.00744094	      0.30823984	      7.08980618	      9.85704051	     -1.36994384	    -13.24063570	      2.71794858	    -16.78153046	     -0.42463412	     17.07675100	     -4.97908482	      0.90321741	    -68.56345161	     -6.47128884	     -8.30561312	      3.73545157	     -2.54124733	      7.94330817	      1.00223295
      0.79183333	      2.10451083	     -4.07106179	      1.44997831	     -0.34329945	      1.00808627	      0.30857426	      6.59395008	      9.77810145	     -1.25070161	    -12.96222560	      2.84423301	    -16.62610906	     -0.40697974	     17.64805168	     -4.88090602	      0.86244488	    -68.30585830	     -5.88727253	     -8.55629918	      3.65450129	     -2.62628626	      7.82706882	      1.09324525
      0.79600000	      2.16605978	     -3.95951242	      1.31083208	     -0.33818347	      1.00882798	      0.30889023	      6.01051593	      9.67954540	     -1.14614165	    -12.63860618	      2.99470770	    -16.36392088	     -0.38027266	     18.12032795	     -4.77023944	      0.81514089	    -67.96011633	     -5.33600098	     -8.72964654	      3.49236096	     -2.76375049	      7.70825490	      1.34254553
      0.80016667	      2.15889170	     -3.86564681	      1.15484755	     -0.33310628	      1.00941168	      0.30921793	      5.52147605	      9.59760809	     -1.02973654	    -12.35155363	      3.11668711	    -16.20304467	     -0.36893087	     18.66375864	     -4.68089468	      0.75500643	    -67.58720030	     -4.75346463	     -8.93518580	      3.43147450	     -2.82387727	      7.61289618	      1.43480686
      0.80433333	      2.19889274	     -3.76414256	      0.98141350	     -0.32800940	      1.01004017	      0.30959089	      4.97013443	      9.50688761	     -0.91128442	    -12.04483974	      3.25915137	    -15.96513634	     -0.35652796	     19.12736013	     -4.60515464	      0.65437626	    -67.14695888	     -4.18831928	     -9.07037432	      3.34442383	     -2.93809156	      7.47552075	      1.62633010
      0.80850000	      2.23941985	     -3.66081009	      0.82543282	     -0.32291874	      1.01062932	      0.30990608	      4.41644316	      9.40391860	     -0.82908570	    -11.73028995	      3.42359932	    -15.63842135	     -0.34153834	     19.57685925	     -4.50982896	      0.58734330	    -66.65382255	     -3.65912577	     -9.14983243	      3.17851737	     -3.06041947	      7.36529576	      1.92065923
      0.81266667	      2.27038408	     -3.56418699	      0.64648766	     -0.31782433	      1.01118939	      0.31023831	      3.87467450	      9.30660093	     -0.72080091	    -11.42131360	      3.56828406	    -15.36793706	     -0.33221380	     20.01351601	     -4.43270401	      0.48865341	    -66.10555313	     -3.12762380	     -9.24032916	      3.02977863	     -3.16304083	      7.26440011	      2.10555461
      0.81683333	      2.24119004	     -3.48145951	      0.47076557	     -0.31278200	      1.01159321	      0.31056470	      3.40785038	      9.22451189	     -0.58949351	    -11.12352357	      3.69384375	    -15.19180053	     -0.32716408	     20.51752958	     -4.36316414	      0.40695708	    -65.53490104	     -2.61302203	     -9.35778617	      2.98336264	     -3.21164886	      7.17110525	      2.18613899
      0.82100000	      2.27694106	     -3.40040547	      0.25846002	     -0.30768346	      1.01206072	      0.31095392	      2.86615415	      9.13901793	     -0.47445843	    -10.82425056	      3.83475525	    -14.90045007	     -0.32316146	     20.91069249	     -4.33342196	      0.25209261	    -64.89379546	     -2.09727391	     -9.35298380	      2.89199264	     -3.31025457	      7.08198933	      2.40572816
      0.82516667	      2.29289787	     -3.32118801	      0.07404163	     -0.30260460	      1.01246525	      0.31127881	      2.34319680	      9.04957444	     -0.37222540	    -10.51256409	      3.97281941	    -14.61698138	     -0.32146865	     21.31859757	     -4.28116531	      0.14385008	    -64.21087553	     -1.62732485	     -9.37462598	      2.79514790	     -3.39743575	      6.99644796	      2.60812591
      0.82933333	      2.33902348	     -3.24449539	     -0.08831484	     -0.29752235	      1.01287821	      0.31157030	      1.78221278	      8.95665242	     -0.31345668	    -10.18339037	      4.12505634	    -14.27700726	     -0.32413040	     21.67891486	     -4.22373048	      0.05594140	    -63.47789506	     -1.20795624	     -9.36081598	      2.63789142	     -3.52538072	      6.90445799	      2.86078470
      0.83350000	      2.36599881	     -3.18075627	     -0.27348956	     -0.29244751	      1.01321200	      0.31188041	      1.24773885	      8.87633253	     -0.21910330	     -9.86582640	      4.25838228	    -13.98966739	     -0.32746833	     22.04192975	     -4.19336051	     -0.06302377	    -62.70661873	     -0.78781607	     -9.34750631	      2.49931371	     -3.62564202	      6.82834531	      3.02164256
      0.83766667	      2.37142674	     -3.12055265	     -0.45452084	     -0.28738588	      1.01347530	      0.31216738	      0.74341521	      8.79597193	     -0.12808821	     -9.55704333	      4.38832613	    -13.68382324	     -0.33467546	     22.41209928	     -4.15677256	     -0.16376655	    -61.89039510	     -0.39373922	     -9.31308472	      2.32388935	     -3.70645837	      6.77469653	      3.21633271
      0.84183333	      2.35467651	     -3.05824926	     -0.65858819	     -0.28233434	      1.01366138	      0.31247508	      0.27005035	      8.71258045	      0.00854281	     -9.26280037	      4.50373259	    -13.45757875	     -0.33460687	     22.78573351	     -4.12979944	     -0.29777655	    -61.02973243	     -0.03350974	     -9.29974336	      2.24826319	     -3.75576514	      6.71485091	      3.30192219
